{"title":"The Golden Boys-AC3-5,1-DVDRip[Eng]2008","uid":5058774,"size":1415512543,"categoryP":"video","categoryS":"movies","magnet":"?xt=urn:btih:5ebe909b729f830355d317ae72ab1c8e27df27a9&amp;dn=The+Golden+Boys-AC3-5%2C1-DVDRip%5BEng%5D2008&amp;tr=udp%3A%2F%2Ftracker.openbittorrent.com%3A80&amp;tr=udp%3A%2F%2Fopen.demonii.com%3A1337&amp;tr=udp%3A%2F%2Ftracker.coppersurfer.tk%3A6969&amp;tr=udp%3A%2F%2Fexodus.desync.com%3A6969","seeders":1,"leechers":0,"uploader":"FatFreddy31","files":-1,"time":1250558474,"description":" &lt;a href=&quot;http://www.imdb.com/title/tt0882969/&quot; rel=&quot;nofollow&quot; target=&quot;_NEW&quot;&gt;http://www.imdb.com/title/tt0882969/&lt;/a&gt;\n &lt;a href=&quot;\nhttp://www.thegoldenboysmovie.com/&quot; rel=&quot;nofollow&quot; target=&quot;_NEW&quot;&gt;\nhttp://www.thegoldenboysmovie.com/&lt;/a&gt;\n\nUser Rating:6.7/10 - 99 votes\n\nRomance\n\nDirector:Daniel Adams\n\nCast:David Carradine/Bruce Dern/Rip Torn/Mariel Hemingway, and others.\n\nPlot:\nA romantic comedy, set on Cape Cod in 1905, about three 70-year-old retired sea captains who try to lure an attractive middle-aged woman into marriage...\n\nInfo:\n\nGeneral\nComplete name                    : The Golden Boys-AC3-5,1-DVDRip[Eng]2008.avi\nFormat                           : AVI\nFormat/Info                      : Audio Video Interleave\nFile size                        : 1.32 GiB\nDuration                         : 1h 36mn\nOverall bit rate                 : 1 948 Kbps\nWriting application              : VirtualDubMod 1.5.4.1 (build 2178/release)\nWriting library                  : VirtualDubMod build 2178/release\n\nVideo\nFormat                           : MPEG-4 Visual\nFormat profile                   : Simple@L3\nFormat settings, BVOP            : No\nFormat settings, QPel            : No\nFormat settings, GMC             : No warppoints\nFormat settings, Matrix          : Default\nCodec ID                         : XVID\nCodec ID/Hint                    : XviD\nDuration                         : 1h 36mn\nBit rate                         : 1 493 Kbps\nWidth                            : 720 pixels\nHeight                           : 400 pixels\nDisplay aspect ratio             : 16/9\nFrame rate                       : 23.976 fps\nResolution                       : 24 bits\nColorimetry                      : 4:2:0\nScan type                        : Progressive\nBits/(Pixel*Frame)               : 0.216\nStream size                      : 1.01 GiB (77%)\nWriting library                  : XviD 50\n\nAudio\nFormat                           : AC-3\nFormat/Info                      : Audio Coding 3\nCodec ID                         : 2000\nDuration                         : 1h 36mn\nBit rate mode                    : Constant\nBit rate                         : 448 Kbps\nChannel(s)                       : 6 channels\nChannel positions                : Front: L C R, Surround: L R, LFE\nSampling rate                    : 48.0 KHz\nStream size                      : 310 MiB (23%)\nAlignment                        : Split accross interleaves\nInterleave, duration             : 83 ms (2.00 video frames)\nInterleave, preload duration     : 500 ms\nLanguage                         : English\n\nEnjoy....","torrent":{"xt":"urn:btih:5ebe909b729f830355d317ae72ab1c8e27df27a9","amp;dn":"The+Golden+Boys-AC3-5%2C1-DVDRip%5BEng%5D2008","amp;tr":["udp%3A%2F%2Ftracker.openbittorrent.com%3A80","udp%3A%2F%2Fopen.demonii.com%3A1337","udp%3A%2F%2Ftracker.coppersurfer.tk%3A6969","udp%3A%2F%2Fexodus.desync.com%3A6969"],"infoHash":"5ebe909b729f830355d317ae72ab1c8e27df27a9","infoHashBuffer":{"type":"Buffer","data":[94,190,144,155,114,159,131,3,85,211,23,174,114,171,28,142,39,223,39,169]},"announce":[],"urlList":[]}}